Coordinates
version=1
nRows=29
nColumns=24
inDegrees=yes

Units are S.I. units (second, meters, Newtons, ...)
Angles are in degrees.

endheader
time	pelvis_tilt	pelvis_list	pelvis_rotation	pelvis_tx	pelvis_ty	pelvis_tz	hip_flexion_r	hip_adduction_r	hip_rotation_r	knee_angle_r	ankle_angle_r	subtalar_angle_r	mtp_angle_r	hip_flexion_l	hip_adduction_l	hip_rotation_l	knee_angle_l	ankle_angle_l	subtalar_angle_l	mtp_angle_l	lumbar_extension	lumbar_bending	lumbar_rotation
      0.97466667	     -0.42508493	     -1.26371726	      4.19215274	     -0.08426913	      1.00732150	      0.29245383	    -17.56338031	      4.86541698	     -2.25318524	     -4.27974260	      4.37680918	     -7.86701407	      6.00402422	     18.33723764	      1.38934261	      7.27320576	      1.19563375	      1.88693165	     -2.99398816	      4.15415955	    -12.70314096	      6.48225083	      4.95860508
      0.97883333	     -0.41482729	     -1.20435577	      4.16365817	     -0.07849480	      1.00678756	      0.29205560	    -17.61092923	      4.75924366	     -2.34971650	     -4.90312315	      4.41904888	     -7.65216900	      6.58699814	     18.23446164	      1.52254827	      7.48011169	      1.15905175	      1.72260137	     -3.05096529	      4.32272100	    -12.69605593	      6.40520445	      4.90917933
      0.98300000	     -0.43644165	     -1.16686682	      4.16026307	     -0.07274266	      1.00622742	      0.29165087	    -17.61878243	      4.68649554	     -2.39852679	     -5.50892457	      4.25776410	     -7.71510297	     11.69836822	     18.20216498	      1.64600078	      7.71000726	      0.98648520	      1.50690300	     -3.16275091	      5.68951354	    -12.66120595	      6.34401895	      4.88040378
      0.98716667	     -0.45060445	     -1.08881162	      4.14075290	     -0.06695089	      1.00570618	      0.29125334	    -17.59518724	      4.56165216	     -2.47687989	     -6.22135163	      4.27216559	     -7.56739086	     11.74306417	     18.15735228	      1.80732143	      7.88653184	      0.74266703	      1.31226029	     -3.19827739	      5.68171291	    -12.62941900	      6.23693072	      4.81147225
      0.99133333	     -0.45396512	     -1.01704590	      4.12381590	     -0.06115162	      1.00522650	      0.29082279	    -17.54401282	      4.43636368	     -2.61074435	     -7.00686597	      4.26767300	     -7.30703134	     11.86087624	     18.09045445	      1.96452215	      8.13526236	      0.46380299	      1.05466343	     -3.42808123	      5.68200570	    -12.59322767	      6.14684213	      4.73459633
      0.99550000	     -0.48242478	     -0.94005446	      4.10925782	     -0.05534369	      1.00474268	      0.29040033	    -17.44822712	      4.30691264	     -2.71076809	     -7.82312683	      4.22328619	     -7.14662172	     12.03999237	     18.05998417	      2.13083290	      8.38990299	      0.11278463	      0.74558238	     -3.70979205	      5.69332381	    -12.53323610	      6.04260799	      4.65924676
      0.99966667	     -0.47898177	     -0.83939739	      4.09677013	     -0.04951349	      1.00432755	      0.28996654	    -17.36539130	      4.15209935	     -2.83174710	     -8.68224497	      4.15386523	     -6.98141562	     12.28199170	     17.99010992	      2.32026412	      8.63948434	     -0.27666227	      0.40059032	     -4.03820982	      5.71463426	    -12.51093136	      5.91344757	      4.56834827
      1.00383333	     -0.47093007	     -0.73840441	      4.08708379	     -0.04368271	      1.00393472	      0.28952172	    -17.26316798	      3.99648238	     -2.95077951	     -9.58349155	      4.04207026	     -6.83235961	     12.60023149	     17.92184677	      2.51234027	      8.89680239	     -0.71669368	      0.02442610	     -4.42494093	      5.74669493	    -12.49484576	      5.78708428	      4.47693221
      1.00800000	     -0.46350316	     -0.64168344	      4.08892806	     -0.03784696	      1.00356769	      0.28908470	    -17.15444703	      3.85492202	     -3.02857012	    -10.47251906	      3.76947396	     -6.94213355	     17.16625178	     17.85817548	      2.70263043	      9.18788581	     -1.19454314	     -0.40018799	     -4.92337644	      6.28482615	    -12.48509554	      5.65562485	      4.42024763
      1.01216667	     -0.46777480	     -0.50265386	      4.07115167	     -0.03197111	      1.00322734	      0.28865319	    -16.99352421	      3.65256197	     -3.15756348	    -11.45802550	      3.56616587	     -6.81530220	     17.22143671	     17.83664125	      2.93340459	      9.28357495	     -1.77345898	     -0.73485378	     -5.14121674	      6.27946431	    -12.45761209	      5.47017147	      4.30122705
      1.01633333	     -0.48146234	     -0.41106708	      4.05712722	     -0.02615182	      1.00287295	      0.28818055	    -16.75866323	      3.49040763	     -3.32122228	    -12.55646940	      3.36549774	     -6.62185964	     17.37610098	     17.81170672	      3.11924336	      9.51744002	     -2.32780235	     -1.14778869	     -5.63939933	      6.27689360	    -12.40644148	      5.37300060	      4.19097789
      1.02050000	     -0.49001891	     -0.29848866	      4.04437637	     -0.02031528	      1.00255732	      0.28771973	    -16.52029270	      3.31056968	     -3.45603366	    -13.66277947	      3.07452329	     -6.55269011	     17.59745589	     17.78838311	      3.32565594	      9.71397381	     -2.91904914	     -1.56331949	     -6.12024562	      6.27762161	    -12.37348028	      5.23151939	      4.08128241
      1.02466667	     -0.44862021	     -0.17694131	      4.03502560	     -0.01447709	      1.00233857	      0.28726065	    -16.32846352	      3.12789324	     -3.57804496	    -14.75831480	      2.62984682	     -6.65221942	     21.83574309	     17.70717891	      3.53982657	      9.94073774	     -3.51882423	     -1.99515422	     -6.73076602	      6.40134345	    -12.41085990	      5.08088238	      4.00951450
      1.02883333	     -0.43505699	     -0.02816169	      4.00825775	     -0.00862251	      1.00211212	      0.28680673	    -16.04763003	      2.89458424	     -3.76482469	    -15.98449759	      2.25291413	     -6.51961127	     21.91089699	     17.67777149	      3.77485088	      9.99616094	     -4.17810416	     -2.32545316	     -7.03879803	      6.39365990	    -12.39503547	      4.89640634	      3.86721713
      1.03300000	     -0.46064189	      0.09409913	      3.98181934	     -0.00281062	      1.00184787	      0.28634057	    -15.69242398	      2.68718465	     -3.91166537	    -17.25166498	      1.79443008	     -6.49378303	     22.05198076	     17.70123387	      3.98997987	     10.11380008	     -4.86401625	     -2.64879481	     -7.47529559	      6.38300645	    -12.35151425	      4.75509575	      3.76118271
      1.03716667	     -0.44514421	      0.23087828	      3.94716158	      0.00300657	      1.00166456	      0.28588918	    -15.34880655	      2.45901381	     -4.08615964	    -18.57124005	      1.27816207	     -6.47623988	     22.25590052	     17.67042941	      4.21124122	     10.20601935	     -5.53797319	     -2.94144972	     -7.90811150	      6.36952620	    -12.34320618	      4.58450125	      3.64748758
      1.04133333	     -0.42837897	      0.36413600	      3.91382947	      0.00877674	      1.00150198	      0.28540988	    -14.97437778	      2.22685767	     -4.26403260	    -19.93309191	      0.71693120	     -6.41945425	     22.65943330	     17.65746806	      4.43554396	     10.30642036	     -6.25782820	     -3.21903765	     -8.41318265	      6.34409267	    -12.36086710	      4.43452348	      3.52913384
      1.04550000	     -0.36581525	      0.52798756	      3.85642022	      0.01458149	      1.00144325	      0.28497750	    -14.62888058	      1.95719751	     -4.43602520	    -21.30777863	     -0.03881071	     -6.59723190	     27.98014628	     17.56568108	      4.67443053	     10.37905366	     -6.93248799	     -3.38450204	     -8.82097476	      6.02652644	    -12.42448223	      4.23578144	      3.44697959
      1.04966667	     -0.35365346	      0.68246424	      3.79235841	      0.02035717	      1.00131726	      0.28454127	    -14.17527334	      1.67927229	     -4.63092198	    -22.78611423	     -0.75705818	     -6.59669134	     28.03554224	     17.55717417	      4.90383416	     10.36180427	     -7.66662101	     -3.46231159	     -9.05519810	      6.02089679	    -12.42120661	      4.05342659	      3.32677734
      1.05383333	     -0.31351105	      0.85089047	      3.71457098	      0.02610567	      1.00125491	      0.28412015	    -13.72373406	      1.38008209	     -4.81301781	    -24.29643679	     -1.54014156	     -6.65157867	     28.13015783	     17.51035989	      5.14261017	     10.35800988	     -8.39271233	     -3.48355110	     -9.33455723	      6.00952943	    -12.45828934	      3.86068229	      3.22099601
      1.05800000	     -0.26389739	      1.02855341	      3.62494429	      0.03183269	      1.00122890	      0.28370673	    -13.25062091	      1.05995316	     -4.99803669	    -25.84822451	     -2.38504601	     -6.71635145	     28.26414892	     17.44968625	      5.38789350	     10.34417352	     -9.11729816	     -3.44917154	     -9.61218196	      5.99142440	    -12.51280244	      3.65758660	      3.11684584
      1.06216667	     -0.27693272	      1.18004602	      3.52722954	      0.03749267	      1.00111066	      0.28329139	    -12.66592304	      0.75477122	     -5.15889863	    -27.45842131	     -3.26847388	     -6.77872282	     28.53523109	     17.48349359	      5.61252800	     10.31918231	     -9.89777542	     -3.34983173	     -9.89353462	      5.95024702	    -12.50546452	      3.49172729	      3.01541663
      1.06633333	     -0.17942248	      1.39806178	      3.40884815	      0.04320667	      1.00118004	      0.28290521	    -12.19144161	      0.36894718	     -5.35536519	    -29.07437997	     -4.24813333	     -6.90475426	     28.71593218	     17.34141910	      5.88488581	     10.27120825	    -10.57344791	     -3.16863405	    -10.08117631	      5.92181083	    -12.60707531	      3.25503790	      2.91403768
      1.07050000	     -0.19012038	      1.54921083	      3.28631704	      0.04880116	      1.00108873	      0.28253784	    -11.55218096	      0.04751046	     -5.49147396	    -30.74062704	     -5.24730663	     -7.02913303	     29.08487712	     17.37074247	      6.09735745	     10.19600218	    -11.35286694	     -2.91994423	    -10.26786008	      5.85217608	    -12.61163300	      3.07035300	      2.81629996
      1.07466667	     -0.08203405	      1.78061847	      3.14305009	      0.05446544	      1.00120764	      0.28218446	    -11.04353283	     -0.37087990	     -5.65854036	    -32.39102821	     -6.32684309	     -7.16729112	     29.22856287	     17.19609856	      6.37596634	     10.14577076	    -11.99155787	     -2.62025855	    -10.42235988	      5.82527027	    -12.74176901	      2.80766819	      2.71085225
      1.07883333	     -0.03718445	      1.96837002	      2.98765864	      0.06005129	      1.00124012	      0.28184431	    -10.43359592	     -0.75249658	     -5.78653290	    -34.05098006	     -7.51662664	     -7.42613360	     33.81412573	     17.13182097	      6.60782749	      9.99078924	    -12.70768319	     -2.22741256	    -10.48017644	      4.61391194	    -12.80422466	      2.62133824	      2.63307994
      1.08300000	      0.01446479	      2.17982392	      2.83504237	      0.06559775	      1.00126215	      0.28149125	     -9.80365275	     -1.17110089	     -5.93969675	    -35.76266800	     -8.57707936	     -7.59753794	     33.81040513	     17.02987469	      6.86930302	      9.92183318	    -13.36251969	     -1.86281864	    -10.63716354	      4.62066186	    -12.86711781	      2.39748717	      2.52197391
      1.08716667	      0.09573091	      2.40716831	      2.66078372	      0.07114635	      1.00136814	      0.28117730	     -9.19994630	     -1.60987181	     -6.05678282	    -37.44747457	     -9.70847427	     -7.77265538	     33.79591561	     16.86009195	      7.13543323	      9.83448873	    -13.94069526	     -1.45658663	    -10.76360180	      4.62234586	    -12.96713821	      2.13742138	      2.41014938
      1.09133333	      0.14083815	      2.61084819	      2.48827605	      0.07661996	      1.00142306	      0.28088212	     -8.53604151	     -2.02211646	     -6.14935144	    -39.13241749	    -10.83638104	     -8.03389943	     33.75447307	     16.75326843	      7.37438318	      9.68399540	    -14.55697292	     -1.04032973	    -10.82841807	      4.60816705	    -13.03375657	      1.92648127	      2.31065545
